<?xml version="1.0" standalone="no"?>
<!DOCTYPE svg PUBLIC "-//W3C//DTD SVG 20010904//EN"
 "http://www.w3.org/TR/2001/REC-SVG-20010904/DTD/svg10.dtd">
<svg version="1.0" xmlns="http://www.w3.org/2000/svg"
 width="250.000000pt" height="250.000000pt" viewBox="0 0 250.000000 250.000000"
 preserveAspectRatio="xMidYMid meet">
<metadata>
Created by potrace 1.14, written by Peter Selinger 2001-2017
</metadata>
<g transform="translate(0.000000,250.000000) scale(0.100000,-0.100000)"
fill="#000000" stroke="none">
<path d="M1449 2356 c-25 -7 -73 -26 -105 -42 -32 -15 -63 -30 -68 -32 -5 -3
-6 7 -2 22 7 27 6 27 -22 12 -76 -39 -122 -140 -103 -225 9 -43 9 -44 -40 -94
-51 -52 -119 -173 -119 -212 0 -14 13 -34 30 -49 17 -14 37 -44 46 -68 8 -23
24 -53 36 -65 l21 -22 28 20 c49 34 111 51 214 58 l99 6 27 40 c14 22 36 65
48 95 l22 55 -5 -61 c-4 -66 -30 -126 -69 -162 -22 -21 -37 -24 -119 -27 -108
-3 -177 -22 -237 -65 l-42 -31 103 -108 c119 -124 219 -259 281 -381 24 -47
46 -92 49 -100 4 -11 18 -5 63 29 109 83 251 241 330 370 21 34 42 61 46 61 5
0 14 -18 20 -40 7 -22 16 -40 20 -40 11 0 49 104 65 180 24 115 12 263 -32
374 -7 19 -5 18 24 -3 40 -28 41 -20 7 87 -54 172 -171 296 -323 341 l-57 18
35 18 35 19 -55 17 c-65 21 -184 23 -251 5z m-239 -406 c-31 -24 -41 -25 -33
-4 6 16 44 35 53 27 3 -2 -6 -13 -20 -23z"/>
<path d="M772 1999 c-92 -14 -160 -43 -224 -96 -213 -177 -196 -386 54 -649
39 -41 76 -74 83 -74 7 0 15 12 18 27 4 23 -5 38 -58 94 -73 78 -116 139 -150
211 -43 91 -29 230 27 275 7 6 49 13 93 15 91 5 147 28 189 78 33 40 33 48 -4
42 -47 -7 -36 14 25 49 30 17 55 33 55 35 0 5 -33 3 -108 -7z"/>
<path d="M953 1454 c-81 -40 -154 -130 -195 -240 -17 -48 -21 -82 -22 -184 -1
-143 13 -213 76 -375 61 -157 120 -255 153 -255 2 0 -3 21 -11 48 -51 164 -46
319 11 382 12 13 13 27 4 81 -6 35 -12 145 -13 244 -1 144 3 193 17 244 9 35
16 65 14 67 -1 1 -17 -4 -34 -12z"/>
<path d="M1042 1445 c-18 -40 -42 -190 -42 -264 0 -72 23 -294 39 -379 54
-278 196 -628 269 -661 22 -10 24 -10 17 6 -4 10 -10 81 -12 158 -4 111 -2
153 11 205 21 82 63 156 109 193 33 27 37 28 57 14 32 -22 78 -89 96 -138 31
-87 35 -155 14 -264 -11 -55 -20 -104 -20 -108 0 -19 45 19 84 73 97 132 200
378 246 587 23 105 50 306 50 369 l0 46 -61 -84 c-105 -141 -310 -332 -392
-363 -10 -4 -20 12 -37 57 -54 151 -211 378 -367 531 l-49 48 -12 -26z"/>
</g>
</svg>
